<?xml version="1.0" encoding="utf-8"?>
<!-- Generator: Adobe Illustrator 26.0.3, SVG Export Plug-In . SVG Version: 6.00 Build 0)  -->
<svg version="1.1" id="Layer_1" xmlns="http://www.w3.org/2000/svg" xmlns:xlink="http://www.w3.org/1999/xlink" x="0px" y="0px"
	 viewBox="0 0 72 72" style="enable-background:new 0 0 72 72;" xml:space="preserve">
<style type="text/css">
	.st0{fill:#354CA1;}
	.st1{fill:#FFFFFF;}
</style>
<circle class="st0" cx="36" cy="35.7" r="34.2"/>
<g>
	<path class="st1" d="M61.1,43.7c0.7,2.6,0.5,4.9-0.7,6.8c-1.8,3-5.6,4.5-10.6,4.5c-0.7,0-1.5-0.1-2.3-0.2c-2.8,6.7-6.8,11-11.5,11
		s-9-4.3-11.5-11.1c-0.8,0.1-1.6,0.2-2.3,0.2c-4.9,0-8.8-1.5-10.6-4.5c-1.1-1.9-1.4-4.3-0.7-6.8c0.6-2.2,1.8-4.5,3.6-6.8
		c-1.8-2.3-3-4.6-3.6-6.8c-0.7-2.6-0.5-4.9,0.7-6.8c2.1-3.5,6.8-4.9,12.9-4.4C27.2,11.9,31.3,7.6,36,7.6c4.7,0,8.9,4.3,11.5,11.1
		c6-0.5,10.8,0.9,12.9,4.4c1.1,1.9,1.4,4.3,0.7,6.8c-0.6,2.2-1.8,4.5-3.6,6.8C59.2,39,60.5,41.3,61.1,43.7z M23.3,22.3
		c-0.4,0-0.8,0-1.2,0c-3.7,0-6.4,1-7.4,2.7c-0.6,1-0.7,2.4-0.3,4c0.3,1.5,1.3,3.2,2.5,4.9c1.5-1.6,3.2-3,4.9-4.4
		C22.2,27.1,22.7,24.6,23.3,22.3z M23.3,51.2c-0.7-2.4-1.1-4.8-1.4-7.3c-1.7-1.3-3.4-2.8-4.9-4.4c-1.2,1.7-2.2,3.4-2.5,4.9
		c-0.4,1.6-0.3,3,0.3,4C15.9,50.5,19,51.4,23.3,51.2z M21.5,36.7c0-0.7,0-1.4,0-2.1c-0.8,0.7-1.5,1.4-2.2,2.1
		c0.7,0.7,1.4,1.4,2.2,2.1C21.5,38.2,21.5,37.5,21.5,36.7z M46.8,36.7c0-1.8,0-3.6-0.1-5.2c-1.7-1.2-3.5-2.4-5.4-3.5
		c-1.7-1-3.5-1.8-5.3-2.6c-1.8,0.8-3.5,1.6-5.3,2.7c-1.9,1-3.7,2.2-5.4,3.5c-0.2,1.6-0.2,3.3-0.2,5.1c0,1.8,0.1,3.6,0.2,5.2
		c1.7,1.2,3.5,2.4,5.4,3.5c1.7,1,3.5,1.8,5.3,2.6c1.8-0.8,3.6-1.6,5.3-2.6c1.9-1,3.7-2.2,5.4-3.5C46.8,40.3,46.8,38.6,46.8,36.7z
		 M26,26.6c1-0.6,1.9-1.2,2.9-1.8c0.7-0.4,1.5-0.8,2.2-1.2c-1.4-0.4-2.8-0.7-4.1-1C26.6,23.8,26.2,25.5,26,26.6z M27,50.8
		c1.4-0.3,2.9-0.6,4.2-1c-0.8-0.4-1.5-0.7-2.3-1.1c-1-0.6-2-1.2-2.9-1.8C26.3,48.2,26.6,49.5,27,50.8z M43.8,54.2
		c-2.7-0.5-5.3-1.3-7.8-2.3c-2.5,1-5.1,1.8-7.8,2.3c2.1,5,5,8,7.8,8C38.7,62.2,41.7,59.2,43.8,54.2z M28.3,19.2
		c2.6,0.5,5.2,1.3,7.8,2.3c2.5-1,5.1-1.8,7.8-2.3c-2.1-5-5-8-7.8-8C33.3,11.3,30.4,14.2,28.3,19.2z M46,46.8c-1,0.6-1.9,1.2-2.9,1.8
		c-0.8,0.4-1.5,0.7-2.3,1.1c1.4,0.4,2.8,0.8,4.2,1C45.4,49.5,45.7,48.2,46,46.8z M45,22.7c-1.4,0.3-2.8,0.6-4.1,1
		c0.7,0.4,1.5,0.7,2.2,1.1c1,0.6,2,1.2,2.9,1.8C45.8,25.5,45.2,23.8,45,22.7z M48.6,22.3c0.7,2.4,1.1,4.8,1.4,7.3
		c1.7,1.3,3.4,2.8,4.9,4.4c1.2-1.7,2.1-3.4,2.5-4.9c0.4-1.6,0.3-3-0.3-4c-1.1-1.8-3.7-2.7-7.4-2.7C49.5,22.2,49.1,22.2,48.6,22.3z
		 M57.6,44.5c-0.4-1.6-1.3-3.2-2.5-4.9c-1.5,1.6-3.2,3-4.9,4.4c-0.3,2.5-0.8,4.9-1.4,7.3c4.3,0.2,7.4-0.7,8.6-2.7
		C57.9,47.5,58,46.1,57.6,44.5z M50.6,36.7c0,0.7,0,1.4,0,2.1c0.8-0.7,1.5-1.4,2.2-2.1c-0.7-0.7-1.4-1.4-2.2-2.1
		C50.5,35.3,50.6,36,50.6,36.7z"/>
</g>
<g>
	<path class="st1" d="M42.4,32c0,1.2-2.9,2.1-6.4,2.1c-3.6,0-6.4-0.9-6.4-2.1v-1.3c0-1.2,2.9-2.1,6.4-2.1c3.6,0,6.4,0.9,6.4,2.1V32z
		 M42.4,36.6c0,1.2-2.9,2.1-6.4,2.1c-3.6,0-6.4-0.9-6.4-2.1v-3c1.4,1,3.9,1.4,6.4,1.4c2.5,0,5-0.4,6.4-1.4V36.6z M42.4,41.2
		c0,1.2-2.9,2.1-6.4,2.1c-3.6,0-6.4-0.9-6.4-2.1v-3c1.4,1,3.9,1.4,6.4,1.4c2.5,0,5-0.4,6.4-1.4V41.2z"/>
</g>
</svg>
